<svg width="47" height="10" viewBox="0 0 47 10" fill="none" xmlns="http://www.w3.org/2000/svg">
<path d="M8.07833 0.599999V9H6.79433L2.16233 3.312V9H0.614328V0.599999H1.89833L6.53033 6.288V0.599999H8.07833ZM13.0652 9.084C12.4172 9.084 11.8332 8.944 11.3132 8.664C10.7932 8.384 10.3852 7.996 10.0892 7.5C9.80117 6.996 9.65717 6.428 9.65717 5.796C9.65717 5.164 9.80117 4.6 10.0892 4.104C10.3852 3.608 10.7932 3.22 11.3132 2.94C11.8332 2.66 12.4172 2.52 13.0652 2.52C13.7212 2.52 14.3092 2.66 14.8292 2.94C15.3492 3.22 15.7532 3.608 16.0412 4.104C16.3372 4.6 16.4852 5.164 16.4852 5.796C16.4852 6.428 16.3372 6.996 16.0412 7.5C15.7532 7.996 15.3492 8.384 14.8292 8.664C14.3092 8.944 13.7212 9.084 13.0652 9.084ZM13.0652 7.8C13.6172 7.8 14.0732 7.616 14.4332 7.248C14.7932 6.88 14.9732 6.396 14.9732 5.796C14.9732 5.196 14.7932 4.712 14.4332 4.344C14.0732 3.976 13.6172 3.792 13.0652 3.792C12.5132 3.792 12.0572 3.976 11.6972 4.344C11.3452 4.712 11.1692 5.196 11.1692 5.796C11.1692 6.396 11.3452 6.88 11.6972 7.248C12.0572 7.616 12.5132 7.8 13.0652 7.8ZM24.1955 0.0959995V9H22.7555V8.172C22.5075 8.476 22.1995 8.704 21.8315 8.856C21.4715 9.008 21.0715 9.084 20.6315 9.084C20.0155 9.084 19.4595 8.948 18.9635 8.676C18.4755 8.404 18.0915 8.02 17.8115 7.524C17.5315 7.02 17.3915 6.444 17.3915 5.796C17.3915 5.148 17.5315 4.576 17.8115 4.08C18.0915 3.584 18.4755 3.2 18.9635 2.928C19.4595 2.656 20.0155 2.52 20.6315 2.52C21.0555 2.52 21.4435 2.592 21.7955 2.736C22.1475 2.88 22.4475 3.096 22.6955 3.384V0.0959995H24.1955ZM20.8115 7.8C21.1715 7.8 21.4955 7.72 21.7835 7.56C22.0715 7.392 22.2995 7.156 22.4675 6.852C22.6355 6.548 22.7195 6.196 22.7195 5.796C22.7195 5.396 22.6355 5.044 22.4675 4.74C22.2995 4.436 22.0715 4.204 21.7835 4.044C21.4955 3.876 21.1715 3.792 20.8115 3.792C20.4515 3.792 20.1275 3.876 19.8395 4.044C19.5515 4.204 19.3235 4.436 19.1555 4.74C18.9875 5.044 18.9035 5.396 18.9035 5.796C18.9035 6.196 18.9875 6.548 19.1555 6.852C19.3235 7.156 19.5515 7.392 19.8395 7.56C20.1275 7.72 20.4515 7.8 20.8115 7.8ZM32.1818 5.832C32.1818 5.936 32.1738 6.084 32.1578 6.276H27.1298C27.2178 6.748 27.4458 7.124 27.8138 7.404C28.1898 7.676 28.6538 7.812 29.2058 7.812C29.9098 7.812 30.4898 7.58 30.9458 7.116L31.7498 8.04C31.4618 8.384 31.0978 8.644 30.6578 8.82C30.2178 8.996 29.7218 9.084 29.1698 9.084C28.4658 9.084 27.8458 8.944 27.3098 8.664C26.7738 8.384 26.3578 7.996 26.0618 7.5C25.7738 6.996 25.6298 6.428 25.6298 5.796C25.6298 5.172 25.7698 4.612 26.0498 4.116C26.3378 3.612 26.7338 3.22 27.2378 2.94C27.7418 2.66 28.3098 2.52 28.9418 2.52C29.5658 2.52 30.1218 2.66 30.6098 2.94C31.1058 3.212 31.4898 3.6 31.7618 4.104C32.0418 4.6 32.1818 5.176 32.1818 5.832ZM28.9418 3.72C28.4618 3.72 28.0538 3.864 27.7178 4.152C27.3898 4.432 27.1898 4.808 27.1178 5.28H30.7538C30.6898 4.816 30.4938 4.44 30.1658 4.152C29.8378 3.864 29.4298 3.72 28.9418 3.72ZM35.0747 9.12C34.5387 9.12 34.0427 9.016 33.5867 8.808C33.1387 8.592 32.7707 8.292 32.4827 7.908L33.3707 6.84C33.8347 7.48 34.3907 7.8 35.0387 7.8C35.9107 7.8 36.3467 7.284 36.3467 6.252V1.908H33.3587V0.599999H37.9067V6.168C37.9067 7.152 37.6667 7.892 37.1867 8.388C36.7067 8.876 36.0027 9.12 35.0747 9.12ZM42.6988 9.12C42.0508 9.12 41.4228 9.028 40.8148 8.844C40.2148 8.66 39.7388 8.416 39.3868 8.112L39.9268 6.9C40.2708 7.172 40.6908 7.396 41.1868 7.572C41.6908 7.74 42.1948 7.824 42.6988 7.824C43.3228 7.824 43.7868 7.724 44.0908 7.524C44.4028 7.324 44.5588 7.06 44.5588 6.732C44.5588 6.492 44.4708 6.296 44.2948 6.144C44.1268 5.984 43.9108 5.86 43.6468 5.772C43.3828 5.684 43.0228 5.584 42.5668 5.472C41.9268 5.32 41.4068 5.168 41.0068 5.016C40.6148 4.864 40.2748 4.628 39.9868 4.308C39.7068 3.98 39.5668 3.54 39.5668 2.988C39.5668 2.524 39.6908 2.104 39.9388 1.728C40.1948 1.344 40.5748 1.04 41.0788 0.816C41.5908 0.592 42.2148 0.48 42.9508 0.48C43.4628 0.48 43.9668 0.544 44.4628 0.672C44.9588 0.8 45.3868 0.984 45.7468 1.224L45.2548 2.436C44.8868 2.22 44.5028 2.056 44.1028 1.944C43.7028 1.832 43.3148 1.776 42.9388 1.776C42.3228 1.776 41.8628 1.88 41.5588 2.088C41.2628 2.296 41.1148 2.572 41.1148 2.916C41.1148 3.156 41.1988 3.352 41.3668 3.504C41.5428 3.656 41.7628 3.776 42.0268 3.864C42.2908 3.952 42.6508 4.052 43.1068 4.164C43.7308 4.308 44.2428 4.46 44.6428 4.62C45.0428 4.772 45.3828 5.008 45.6628 5.328C45.9508 5.648 46.0948 6.08 46.0948 6.624C46.0948 7.088 45.9668 7.508 45.7108 7.884C45.4628 8.26 45.0828 8.56 44.5708 8.784C44.0588 9.008 43.4348 9.12 42.6988 9.12Z" fill="black"/>
</svg>
